<svg width="164" height="81" viewBox="0 0 164 81" fill="none" xmlns="http://www.w3.org/2000/svg">
<rect width="164" height="81" rx="5" fill="#FFF5EA"/>
<path d="M161.012 7.0249V62.5C161.012 64.7091 159.221 66.5 157.012 66.5H138.5C135.186 66.5 132.5 69.1863 132.5 72.5V73.9749C132.5 76.184 130.709 77.9749 128.5 77.9749H6.98791C4.77877 77.9749 2.98792 76.184 2.98792 73.9749V18.5C2.98792 16.2909 4.77878 14.5 6.98792 14.5H27.5C30.8137 14.5 33.5 11.8137 33.5 8.5V7.0249C33.5 4.81576 35.2909 3.0249 37.5 3.0249H157.012C159.221 3.0249 161.012 4.81576 161.012 7.0249Z" fill="#FFF5EA"/>
<path d="M161.012 7.0249V62.5C161.012 64.7091 159.221 66.5 157.012 66.5H138.5C135.186 66.5 132.5 69.1863 132.5 72.5V73.9749C132.5 76.184 130.709 77.9749 128.5 77.9749H6.98791C4.77877 77.9749 2.98792 76.184 2.98792 73.9749V18.5C2.98792 16.2909 4.77878 14.5 6.98792 14.5H27.5C30.8137 14.5 33.5 11.8137 33.5 8.5V7.0249C33.5 4.81576 35.2909 3.0249 37.5 3.0249H157.012C159.221 3.0249 161.012 4.81576 161.012 7.0249Z" stroke="#C8130D" stroke-width="2"/>
<path d="M161.012 7.0249V62.5C161.012 64.7091 159.221 66.5 157.012 66.5H138.5C135.186 66.5 132.5 69.1863 132.5 72.5V73.9749C132.5 76.184 130.709 77.9749 128.5 77.9749H6.98791C4.77877 77.9749 2.98792 76.184 2.98792 73.9749V18.5C2.98792 16.2909 4.77878 14.5 6.98792 14.5H27.5C30.8137 14.5 33.5 11.8137 33.5 8.5V7.0249C33.5 4.81576 35.2909 3.0249 37.5 3.0249H157.012C159.221 3.0249 161.012 4.81576 161.012 7.0249Z" stroke="black" stroke-opacity="0.2" stroke-width="2"/>
<path d="M15 10.4812H13.64L10.152 7.21725C9.46933 6.57725 8.92 6.07592 8.504 5.71325C8.07733 5.33992 7.704 5.07325 7.384 4.91325C7.064 4.74258 6.728 4.65725 6.376 4.65725C5.8 4.65725 5.35733 4.83325 5.048 5.18525C4.728 5.53725 4.568 5.99058 4.568 6.54525C4.568 7.12125 4.73333 7.61725 5.064 8.03325C5.384 8.44925 5.85333 8.73725 6.472 8.89725L5.992 10.5612C5.36267 10.4332 4.81867 10.1772 4.36 9.79325C3.89067 9.40925 3.528 8.93992 3.272 8.38525C3.016 7.81992 2.888 7.21192 2.888 6.56125C2.888 5.80392 3.032 5.14258 3.32 4.57725C3.59733 4.01192 3.98667 3.57458 4.488 3.26525C4.98933 2.94525 5.57067 2.78525 6.232 2.78525C6.66933 2.78525 7.096 2.87058 7.512 3.04125C7.91733 3.20125 8.34933 3.45192 8.808 3.79325C9.256 4.13458 9.76267 4.57192 10.328 5.10525L13.4 7.98525L13.4 2.56125H15L15 10.4812Z" fill="#C8130D"/>
<path fill-rule="evenodd" clip-rule="evenodd" d="M134 74C136.426 75.5293 138.759 77.2509 141 79C143.241 77.1685 145.574 75.4194 148 74C145.528 72.5256 143.172 70.9139 141 69C138.759 70.859 136.379 72.5531 134 74Z" fill="#C8130D"/>
<path d="M150 69.5188H151.36L154.848 72.7828C155.531 73.4228 156.08 73.9241 156.496 74.2868C156.923 74.6601 157.296 74.9268 157.616 75.0868C157.936 75.2574 158.272 75.3428 158.624 75.3428C159.2 75.3428 159.643 75.1668 159.952 74.8148C160.272 74.4628 160.432 74.0094 160.432 73.4548C160.432 72.8788 160.267 72.3828 159.936 71.9668C159.616 71.5508 159.147 71.2628 158.528 71.1028L159.008 69.4388C159.637 69.5668 160.181 69.8228 160.64 70.2068C161.109 70.5908 161.472 71.0601 161.728 71.6148C161.984 72.1801 162.112 72.7881 162.112 73.4388C162.112 74.1961 161.968 74.8574 161.68 75.4228C161.403 75.9881 161.013 76.4254 160.512 76.7348C160.011 77.0548 159.429 77.2148 158.768 77.2148C158.331 77.2148 157.904 77.1294 157.488 76.9588C157.083 76.7988 156.651 76.5481 156.192 76.2068C155.744 75.8654 155.237 75.4281 154.672 74.8948L151.6 72.0148V77.4388H150V69.5188Z" fill="#C8130D"/>
<path fill-rule="evenodd" clip-rule="evenodd" d="M17 7C19.4256 8.5293 21.759 10.2509 24 12C26.241 10.1685 28.5744 8.41941 31 7C28.5282 5.52564 26.1718 3.91392 24 2C21.759 3.85898 19.3795 5.55311 17 7Z" fill="#C8130D"/>
</svg>
