<svg width="42" height="42" viewBox="0 0 42 42" fill="none" xmlns="http://www.w3.org/2000/svg">
<rect width="42" height="42" rx="21" fill="#C8130D" fill-opacity="0.12"/>
<path d="M15.9219 26.4531C15.7917 26.3229 15.7057 26.1719 15.6641 26C15.6224 25.8229 15.6224 25.6484 15.6641 25.4766C15.7057 25.3047 15.7891 25.1562 15.9141 25.0312L19.5781 21.3672L15.9141 17.7109C15.7891 17.5859 15.7057 17.4375 15.6641 17.2656C15.6224 17.0938 15.6224 16.9219 15.6641 16.75C15.7057 16.5729 15.7917 16.4193 15.9219 16.2891C16.0469 16.1641 16.1953 16.0807 16.3672 16.0391C16.5443 15.9922 16.7188 15.9922 16.8906 16.0391C17.0677 16.0807 17.2188 16.1615 17.3438 16.2812L21 19.9453L24.6641 16.2891C24.7891 16.1641 24.9349 16.0807 25.1016 16.0391C25.2734 15.9922 25.4453 15.9922 25.6172 16.0391C25.7943 16.0807 25.9453 16.1667 26.0703 16.2969C26.2057 16.4219 26.2943 16.5729 26.3359 16.75C26.3776 16.9219 26.3776 17.0938 26.3359 17.2656C26.2943 17.4375 26.2083 17.5859 26.0781 17.7109L22.4297 21.3672L26.0781 25.0312C26.2083 25.1562 26.2943 25.3047 26.3359 25.4766C26.3776 25.6484 26.3776 25.8229 26.3359 26C26.2943 26.1719 26.2057 26.3203 26.0703 26.4453C25.9453 26.5755 25.7943 26.6641 25.6172 26.7109C25.4453 26.7526 25.2734 26.7526 25.1016 26.7109C24.9349 26.6693 24.7891 26.5833 24.6641 26.4531L21 22.7969L17.3438 26.4609C17.2188 26.5807 17.0677 26.6641 16.8906 26.7109C16.7188 26.7526 16.5443 26.7526 16.3672 26.7109C16.1953 26.6641 16.0469 26.5781 15.9219 26.4531Z" fill="#C8130D"/>
</svg>
