<svg width="17" height="18" viewBox="0 0 17 18" fill="none" xmlns="http://www.w3.org/2000/svg">
<ellipse cx="8.5" cy="8.69953" rx="8.5" ry="8.69953" fill="#C8130D"/>
<path d="M7.69398 10.7688V10.5988C7.69398 10.3054 7.74065 10.0454 7.83398 9.81877C7.93398 9.5921 8.05731 9.38877 8.20398 9.20877C8.35731 9.0221 8.51398 8.8521 8.67398 8.69877C8.90065 8.48544 9.10065 8.27877 9.27398 8.07877C9.45398 7.87877 9.54398 7.64544 9.54398 7.37877C9.54398 7.2121 9.50398 7.0621 9.42398 6.92877C9.34398 6.78877 9.22398 6.67877 9.06398 6.59877C8.91065 6.5121 8.72065 6.46877 8.49398 6.46877C8.18065 6.46877 7.91065 6.56544 7.68398 6.75877C7.46398 6.94544 7.32398 7.19877 7.26398 7.51877L6.21398 7.26877C6.27398 6.9021 6.40731 6.5821 6.61398 6.30877C6.82731 6.02877 7.09398 5.8121 7.41398 5.65877C7.74065 5.49877 8.10731 5.41877 8.51398 5.41877C8.97398 5.41877 9.36731 5.5121 9.69398 5.69877C10.0273 5.87877 10.2806 6.11544 10.454 6.40877C10.6273 6.7021 10.714 7.01877 10.714 7.35877C10.714 7.6321 10.6573 7.87877 10.544 8.09877C10.4373 8.3121 10.2973 8.50877 10.124 8.68877C9.95731 8.86877 9.78398 9.04544 9.60398 9.21877C9.39065 9.42544 9.20065 9.6421 9.03398 9.86877C8.87398 10.0888 8.79398 10.3488 8.79398 10.6488V10.7688H7.69398ZM7.69398 12.9888V11.6888H8.84398V12.9888H7.69398Z" fill="#FFF5EA"/>
</svg>
