<svg width="165" height="80" viewBox="0 0 165 80" fill="none" xmlns="http://www.w3.org/2000/svg">
<rect width="165" height="80" rx="5" fill="#FFF5EA"/>
<path d="M162 7V61.6668C162 63.8759 160.209 65.6668 158 65.6668H139.314C136 65.6668 133.314 68.3531 133.314 71.6668V73C133.314 75.2091 131.523 77 129.314 77H7C4.79086 77 3 75.2091 3 73V18.3334C3 16.1243 4.79086 14.3334 7 14.3334H27.6981C31.0118 14.3334 33.6981 11.6471 33.6981 8.33343V7C33.6981 4.79086 35.489 3 37.6981 3H158C160.209 3 162 4.79086 162 7Z" fill="#FFF5EA"/>
<path d="M162 7V61.6668C162 63.8759 160.209 65.6668 158 65.6668H139.314C136 65.6668 133.314 68.3531 133.314 71.6668V73C133.314 75.2091 131.523 77 129.314 77H7C4.79086 77 3 75.2091 3 73V18.3334C3 16.1243 4.79086 14.3334 7 14.3334H27.6981C31.0118 14.3334 33.6981 11.6471 33.6981 8.33343V7C33.6981 4.79086 35.489 3 37.6981 3H158C160.209 3 162 4.79086 162 7Z" stroke="#C8130D" stroke-width="2"/>
<path d="M162 7V61.6668C162 63.8759 160.209 65.6668 158 65.6668H139.314C136 65.6668 133.314 68.3531 133.314 71.6668V73C133.314 75.2091 131.523 77 129.314 77H7C4.79086 77 3 75.2091 3 73V18.3334C3 16.1243 4.79086 14.3334 7 14.3334H27.6981C31.0118 14.3334 33.6981 11.6471 33.6981 8.33343V7C33.6981 4.79086 35.489 3 37.6981 3H158C160.209 3 162 4.79086 162 7Z" stroke="black" stroke-opacity="0.2" stroke-width="2"/>
<path d="M15.2042 6.62223C15.2042 7.26223 15.0869 7.86489 14.8522 8.43023C14.6175 8.98489 14.2869 9.46489 13.8602 9.87023C13.4335 10.2649 12.9322 10.5476 12.3562 10.7182L11.7482 9.11823C12.3135 8.90489 12.7509 8.57956 13.0602 8.14223C13.3695 7.70489 13.5242 7.19823 13.5242 6.62223C13.5242 6.15289 13.4335 5.74756 13.2522 5.40623C13.0709 5.05423 12.8149 4.78223 12.4842 4.59023C12.1535 4.38756 11.7535 4.28623 11.2842 4.28623C10.8255 4.28623 10.4309 4.38756 10.1002 4.59023C9.76954 4.78223 9.51887 5.05423 9.34821 5.40623C9.17754 5.74756 9.09221 6.15289 9.09221 6.62223C9.09221 6.81423 9.10821 7.01156 9.14021 7.21423C9.17221 7.40623 9.21487 7.57689 9.26821 7.72623L8.38821 8.14223L4.69221 5.00623L4.69221 10.0782H3.09221L3.09221 2.89423H4.61221L8.29221 5.96623L7.68421 6.01423C7.69487 5.29956 7.85487 4.67023 8.16421 4.12623C8.46287 3.58223 8.87887 3.16089 9.41221 2.86223C9.93487 2.55289 10.5429 2.39823 11.2362 2.39823C11.9829 2.39823 12.6602 2.57956 13.2682 2.94223C13.8655 3.30489 14.3402 3.80623 14.6922 4.44623C15.0335 5.07556 15.2042 5.80089 15.2042 6.62223Z" fill="#C8130D"/>
<path fill-rule="evenodd" clip-rule="evenodd" d="M134.817 73.0866C137.258 74.5971 139.605 76.2974 141.86 78.0249C144.115 76.216 146.462 74.4885 148.903 73.0866C146.416 71.6305 144.045 70.0387 141.86 68.1484C139.605 69.9844 137.211 71.6576 134.817 73.0866Z" fill="#C8130D"/>
<path d="M150.802 72.39C150.802 71.75 150.919 71.1473 151.154 70.582C151.389 70.0273 151.719 69.5473 152.146 69.142C152.573 68.7473 153.074 68.4646 153.65 68.294L154.258 69.894C153.693 70.1073 153.255 70.4326 152.946 70.87C152.637 71.3073 152.482 71.814 152.482 72.39C152.482 72.8593 152.573 73.2646 152.754 73.606C152.935 73.958 153.191 74.23 153.522 74.422C153.853 74.6246 154.253 74.726 154.722 74.726C155.181 74.726 155.575 74.6246 155.906 74.422C156.237 74.23 156.487 73.958 156.658 73.606C156.829 73.2646 156.914 72.8593 156.914 72.39C156.914 72.198 156.898 72.0006 156.866 71.798C156.834 71.606 156.791 71.4353 156.738 71.286L157.618 70.87L161.314 74.006V68.934H162.914V76.118H161.394L157.714 73.046L158.322 72.998C158.311 73.7126 158.151 74.342 157.842 74.886C157.543 75.43 157.127 75.8513 156.594 76.15C156.071 76.4593 155.463 76.614 154.77 76.614C154.023 76.614 153.346 76.4326 152.738 76.07C152.141 75.7073 151.666 75.206 151.314 74.566C150.973 73.9366 150.802 73.2113 150.802 72.39Z" fill="#C8130D"/>
<path fill-rule="evenodd" clip-rule="evenodd" d="M17.1036 6.91378C19.5441 8.4242 21.8916 10.1246 24.1463 11.8521C26.401 10.0432 28.7486 8.31567 31.189 6.91378C28.7021 5.45762 26.3314 3.8658 24.1463 1.97551C21.8916 3.81153 19.4976 5.48476 17.1036 6.91378Z" fill="#C8130D"/>
</svg>
