<svg width="101" height="46" viewBox="0 0 101 46" fill="none" xmlns="http://www.w3.org/2000/svg">
<path fill-rule="evenodd" clip-rule="evenodd" d="M7.23462 16.5462C-6.93842 30.745 6.95505 41.0444 18.1609 34.2655C16.045 41.6617 14.8815 42.2437 13.5969 44.1915H25.6958C24.1428 42.2246 22.5117 41.6618 20.8593 34.3076C32.3001 40.7523 44.3582 29.5133 31.6632 16.5462C23.3606 9.42477 20.1373 2.9232 19.4489 2C18.7884 2.7692 14.897 9.55689 7.23462 16.5462Z" fill="black" stroke="black" stroke-width="1.65655"/>
<path d="M80.2717 44.0682C80.2322 43.998 80.0624 43.4906 79.8945 42.9406C78.8298 39.455 76.8535 35.9254 73.5439 31.599C72.3004 29.9736 71.1301 28.5342 67.9653 24.7384C64.3009 20.3434 63.2513 18.9354 62.1914 16.9935C61.5655 15.8467 60.9168 14.1018 60.7034 12.9906C60.4901 11.88 60.4866 10.0657 60.696 9.1209C61.5477 5.27792 65.0073 2.37866 69.1442 2.04106C73.8833 1.65431 77.9145 4.0165 80.0326 8.42141L80.5056 9.40503L80.8615 8.62798C81.3905 7.47336 81.8999 6.69244 82.7597 5.71809C84.9488 3.23736 87.5541 2.02218 90.6926 2.01792C92.0985 2.01602 92.9041 2.13115 94.1021 2.5052C95.8938 3.06461 97.2426 3.9361 98.4438 5.31053C101.574 8.89233 101.204 13.772 97.3471 19.7483C96.4475 21.1424 94.8244 23.2051 92.5923 25.7909C90.0218 28.7687 88.7658 30.282 87.4799 31.9509C84.3976 35.9512 82.3247 39.586 81.1844 42.9895C81.0105 43.5088 80.8283 43.9926 80.7795 44.0647C80.6662 44.2321 80.3651 44.2342 80.2717 44.0682Z" fill="#C8130D"/>
</svg>
