<svg width="41" height="43" viewBox="0 0 41 43" fill="none" xmlns="http://www.w3.org/2000/svg">
<path d="M20.2717 42.0682C20.2322 41.998 20.0624 41.4906 19.8945 40.9406C18.8298 37.455 16.8535 33.9254 13.5439 29.599C12.3004 27.9736 11.1301 26.5342 7.96532 22.7384C4.30094 18.3434 3.2513 16.9354 2.19138 14.9935C1.56547 13.8467 0.916843 12.1018 0.703392 10.9906C0.490063 9.88005 0.486586 8.06566 0.695973 7.1209C1.54769 3.27792 5.00731 0.378662 9.14418 0.0410581C13.8833 -0.345691 17.9145 2.0165 20.0326 6.42141L20.5056 7.40503L20.8615 6.62798C21.3905 5.47336 21.8999 4.69244 22.7597 3.71809C24.9488 1.23736 27.5541 0.0221752 30.6926 0.017924C32.0985 0.0160226 32.9041 0.131154 34.1021 0.505195C35.8938 1.06461 37.2426 1.9361 38.4438 3.31053C41.5742 6.89233 41.2036 11.772 37.3471 17.7483C36.4475 19.1424 34.8244 21.2051 32.5923 23.7909C30.0218 26.7687 28.7658 28.282 27.4799 29.9509C24.3976 33.9512 22.3247 37.586 21.1844 40.9895C21.0105 41.5088 20.8283 41.9926 20.7795 42.0647C20.6662 42.2321 20.3651 42.2342 20.2717 42.0682Z" fill="#C8130D"/>
</svg>
