<svg width="343" height="500" viewBox="0 0 343 500" fill="none" xmlns="http://www.w3.org/2000/svg">
<rect x="343" width="500" height="343" rx="5" transform="rotate(90 343 0)" fill="#FFF5EA"/>
<path d="M329.425 492.939H62.1666C59.9574 492.939 58.1666 491.148 58.1666 488.939V412.012C58.1666 408.698 55.4803 406.012 52.1666 406.012H13.5753C11.3662 406.012 9.57532 404.221 9.57532 402.012V11.0606C9.57532 8.85142 11.3662 7.06055 13.5753 7.06055L280.833 7.06055C283.042 7.06055 284.833 8.85141 284.833 11.0605V94.0852C284.833 97.3989 287.52 100.085 290.833 100.085H329.425C331.634 100.085 333.425 101.876 333.425 104.085V488.939C333.425 491.148 331.634 492.939 329.425 492.939Z" fill="#FFF5EA"/>
<path d="M329.425 492.939H62.1666C59.9574 492.939 58.1666 491.148 58.1666 488.939V412.012C58.1666 408.698 55.4803 406.012 52.1666 406.012H13.5753C11.3662 406.012 9.57532 404.221 9.57532 402.012V11.0606C9.57532 8.85142 11.3662 7.06055 13.5753 7.06055L280.833 7.06055C283.042 7.06055 284.833 8.85141 284.833 11.0605V94.0852C284.833 97.3989 287.52 100.085 290.833 100.085H329.425C331.634 100.085 333.425 101.876 333.425 104.085V488.939C333.425 491.148 331.634 492.939 329.425 492.939Z" stroke="#C8130D" stroke-width="2"/>
<path d="M329.425 492.939H62.1666C59.9574 492.939 58.1666 491.148 58.1666 488.939V412.012C58.1666 408.698 55.4803 406.012 52.1666 406.012H13.5753C11.3662 406.012 9.57532 404.221 9.57532 402.012V11.0606C9.57532 8.85142 11.3662 7.06055 13.5753 7.06055L280.833 7.06055C283.042 7.06055 284.833 8.85141 284.833 11.0605V94.0852C284.833 97.3989 287.52 100.085 290.833 100.085H329.425C331.634 100.085 333.425 101.876 333.425 104.085V488.939C333.425 491.148 331.634 492.939 329.425 492.939Z" stroke="black" stroke-opacity="0.2" stroke-width="2"/>
<path d="M312.547 32.1057V31.4937C312.547 30.4377 312.715 29.5017 313.051 28.6857C313.411 27.8697 313.855 27.1377 314.383 26.4897C314.935 25.8177 315.499 25.2057 316.075 24.6537C316.891 23.8857 317.611 23.1417 318.235 22.4217C318.883 21.7017 319.207 20.8617 319.207 19.9017C319.207 19.3017 319.063 18.7617 318.775 18.2817C318.487 17.7777 318.055 17.3817 317.479 17.0937C316.927 16.7817 316.243 16.6257 315.427 16.6257C314.299 16.6257 313.327 16.9737 312.511 17.6697C311.719 18.3417 311.215 19.2537 310.999 20.4057L307.219 19.5057C307.435 18.1857 307.915 17.0337 308.659 16.0497C309.427 15.0417 310.387 14.2617 311.539 13.7097C312.715 13.1337 314.035 12.8457 315.499 12.8457C317.155 12.8457 318.571 13.1817 319.747 13.8537C320.947 14.5017 321.859 15.3537 322.483 16.4097C323.107 17.4657 323.419 18.6057 323.419 19.8297C323.419 20.8137 323.215 21.7017 322.807 22.4937C322.423 23.2617 321.919 23.9697 321.295 24.6177C320.695 25.2657 320.071 25.9017 319.423 26.5257C318.655 27.2697 317.971 28.0497 317.371 28.8657C316.795 29.6577 316.507 30.5937 316.507 31.6737V32.1057H312.547ZM312.547 40.0977V35.4177H316.687V40.0977H312.547Z" fill="#C8130D"/>
<path d="M34.6879 470.943V471.555C34.6879 472.611 34.5199 473.547 34.1839 474.363C33.8239 475.179 33.3799 475.911 32.8519 476.559C32.2999 477.231 31.7359 477.843 31.1599 478.395C30.3439 479.163 29.6239 479.907 28.9999 480.627C28.3519 481.347 28.0279 482.187 28.0279 483.147C28.0279 483.747 28.1719 484.287 28.4599 484.767C28.7479 485.271 29.1799 485.667 29.7559 485.955C30.3079 486.267 30.9919 486.423 31.8079 486.423C32.9359 486.423 33.9079 486.075 34.7239 485.379C35.5159 484.707 36.0199 483.795 36.2359 482.643L40.0159 483.543C39.7999 484.863 39.3199 486.015 38.5759 486.999C37.8079 488.007 36.8479 488.787 35.6959 489.339C34.5199 489.915 33.1999 490.203 31.7359 490.203C30.0799 490.203 28.6639 489.867 27.4879 489.195C26.2879 488.547 25.3759 487.695 24.7519 486.639C24.1279 485.583 23.8159 484.443 23.8159 483.219C23.8159 482.235 24.0199 481.347 24.4279 480.555C24.8119 479.787 25.3159 479.079 25.9399 478.431C26.5399 477.783 27.1639 477.147 27.8119 476.523C28.5799 475.779 29.2639 474.999 29.8639 474.183C30.4399 473.391 30.7279 472.455 30.7279 471.375V470.943H34.6879ZM34.6879 462.951V467.631H30.5479V462.951H34.6879Z" fill="#C8130D"/>
<path fill-rule="evenodd" clip-rule="evenodd" d="M31.6234 413C27.4565 420.619 22.7657 427.948 18 434.988C22.9903 442.027 27.756 449.356 31.6234 456.975C35.6406 449.211 40.032 441.809 45.2468 434.988C40.1817 427.948 35.5657 420.474 31.6234 413Z" fill="#C8130D"/>
<path fill-rule="evenodd" clip-rule="evenodd" d="M314.623 52C310.457 59.6191 305.766 66.9483 301 73.9875C305.99 81.0268 310.756 88.3559 314.623 95.975C318.641 88.211 323.032 80.8093 328.247 73.9875C323.182 66.9483 318.566 59.4741 314.623 52Z" fill="#C8130D"/>
</svg>
