<svg width="164" height="80" viewBox="0 0 164 80" fill="none" xmlns="http://www.w3.org/2000/svg">
<rect width="164" height="80" rx="5" fill="#FFF5EA"/>
<path d="M161.012 7V61.6668C161.012 63.8759 159.221 65.6668 157.012 65.6668H138.5C135.186 65.6668 132.5 68.3531 132.5 71.6668V73C132.5 75.2091 130.709 77 128.5 77H6.98791C4.77877 77 2.98792 75.2091 2.98792 73V18.3334C2.98792 16.1243 4.77878 14.3334 6.98792 14.3334H27.5C30.8137 14.3334 33.5 11.6471 33.5 8.33343V7C33.5 4.79086 35.2909 3 37.5 3H157.012C159.221 3 161.012 4.79086 161.012 7Z" fill="#FFF5EA"/>
<path d="M161.012 7V61.6668C161.012 63.8759 159.221 65.6668 157.012 65.6668H138.5C135.186 65.6668 132.5 68.3531 132.5 71.6668V73C132.5 75.2091 130.709 77 128.5 77H6.98791C4.77877 77 2.98792 75.2091 2.98792 73V18.3334C2.98792 16.1243 4.77878 14.3334 6.98792 14.3334H27.5C30.8137 14.3334 33.5 11.6471 33.5 8.33343V7C33.5 4.79086 35.2909 3 37.5 3H157.012C159.221 3 161.012 4.79086 161.012 7Z" stroke="#C8130D" stroke-width="2"/>
<path d="M161.012 7V61.6668C161.012 63.8759 159.221 65.6668 157.012 65.6668H138.5C135.186 65.6668 132.5 68.3531 132.5 71.6668V73C132.5 75.2091 130.709 77 128.5 77H6.98791C4.77877 77 2.98792 75.2091 2.98792 73V18.3334C2.98792 16.1243 4.77878 14.3334 6.98792 14.3334H27.5C30.8137 14.3334 33.5 11.6471 33.5 8.33343V7C33.5 4.79086 35.2909 3 37.5 3H157.012C159.221 3 161.012 4.79086 161.012 7Z" stroke="black" stroke-opacity="0.2" stroke-width="2"/>
<path d="M15 5.28748H12.312L12.312 10.9675H10.744L3.08 5.36748L3.08 3.49548L10.744 3.49548V1.84748H12.312V3.49548H15V5.28748ZM11.432 9.57548L10.744 9.87948L10.744 5.28748L4.584 5.28748L4.744 4.77548L11.432 9.57548Z" fill="#C8130D"/>
<path fill-rule="evenodd" clip-rule="evenodd" d="M134 73.0866C136.426 74.5971 138.759 76.2974 141 78.0249C143.241 76.216 145.574 74.4885 148 73.0866C145.528 71.6305 143.172 70.0387 141 68.1484C138.759 69.9844 136.379 71.6576 134 73.0866Z" fill="#C8130D"/>
<path d="M150 73.7247H152.688V68.0447H154.256L161.92 73.6447V75.5167H154.256V77.1647H152.688V75.5167H150V73.7247ZM153.568 69.4367L154.256 69.1327V73.7247H160.416L160.256 74.2367L153.568 69.4367Z" fill="#C8130D"/>
<path fill-rule="evenodd" clip-rule="evenodd" d="M17 6.91378C19.4256 8.4242 21.759 10.1246 24 11.8521C26.241 10.0432 28.5744 8.31567 31 6.91378C28.5282 5.45762 26.1718 3.8658 24 1.97551C21.759 3.81153 19.3795 5.48476 17 6.91378Z" fill="#C8130D"/>
</svg>
