<svg width="164" height="81" viewBox="0 0 164 81" fill="none" xmlns="http://www.w3.org/2000/svg">
<rect width="164" height="81" rx="5" fill="#FFF5EA"/>
<path d="M2.98779 18.5C2.98779 16.2909 4.77865 14.5 6.98779 14.5H27.4999C30.8136 14.5 33.4999 11.8137 33.4999 8.5V7.0249C33.4999 4.81576 35.2907 3.0249 37.4999 3.0249H157.012C159.221 3.0249 161.012 4.81576 161.012 7.0249V62.5C161.012 64.7091 159.221 66.5 157.012 66.5H138.5C135.186 66.5 132.5 69.1863 132.5 72.5V73.9749C132.5 76.184 130.709 77.9749 128.5 77.9749H6.98779C4.77865 77.9749 2.98779 76.184 2.98779 73.9749V18.5Z" fill="#FFF5EA"/>
<path d="M2.98779 18.5C2.98779 16.2909 4.77865 14.5 6.98779 14.5H27.4999C30.8136 14.5 33.4999 11.8137 33.4999 8.5V7.0249C33.4999 4.81576 35.2907 3.0249 37.4999 3.0249H157.012C159.221 3.0249 161.012 4.81576 161.012 7.0249V62.5C161.012 64.7091 159.221 66.5 157.012 66.5H138.5C135.186 66.5 132.5 69.1863 132.5 72.5V73.9749C132.5 76.184 130.709 77.9749 128.5 77.9749H6.98779C4.77865 77.9749 2.98779 76.184 2.98779 73.9749V18.5Z" stroke="#C8130D" stroke-width="2"/>
<path d="M2.98779 18.5C2.98779 16.2909 4.77865 14.5 6.98779 14.5H27.4999C30.8136 14.5 33.4999 11.8137 33.4999 8.5V7.0249C33.4999 4.81576 35.2907 3.0249 37.4999 3.0249H157.012C159.221 3.0249 161.012 4.81576 161.012 7.0249V62.5C161.012 64.7091 159.221 66.5 157.012 66.5H138.5C135.186 66.5 132.5 69.1863 132.5 72.5V73.9749C132.5 76.184 130.709 77.9749 128.5 77.9749H6.98779C4.77865 77.9749 2.98779 76.184 2.98779 73.9749V18.5Z" stroke="black" stroke-opacity="0.2" stroke-width="2"/>
<path d="M15 11.8631L3.08 7.67106V5.33506L15 1.14306V3.15906L12.328 4.07106L12.328 8.91906L15 9.84706V11.8631ZM10.648 8.37506L10.648 4.64706L4.408 6.75906V6.23106L10.648 8.37506Z" fill="#C8130D"/>
<path fill-rule="evenodd" clip-rule="evenodd" d="M134 74C136.426 75.5293 138.759 77.2509 141 79C143.241 77.1685 145.574 75.4194 148 74C145.528 72.5256 143.172 70.9139 141 69C138.759 70.859 136.379 72.5531 134 74Z" fill="#C8130D"/>
<path d="M150 68.1369L161.92 72.3289V74.6649L150 78.8569V76.8409L152.672 75.9289V71.0809L150 70.1529V68.1369ZM154.352 71.6249V75.3529L160.592 73.2409V73.7689L154.352 71.6249Z" fill="#C8130D"/>
<path fill-rule="evenodd" clip-rule="evenodd" d="M17 7C19.4256 8.5293 21.759 10.2509 24 12C26.241 10.1685 28.5744 8.41941 31 7C28.5282 5.52564 26.1718 3.91392 24 2C21.759 3.85898 19.3795 5.55311 17 7Z" fill="#C8130D"/>
</svg>
