<svg width="96" height="46" viewBox="0 0 96 46" fill="none" xmlns="http://www.w3.org/2000/svg">
<path d="M72.703 20.1925C66.0811 16.9878 56.3406 20.8104 58.6452 29.4335C60.891 37.8367 70.5899 35.9926 73.9438 30.8774C72.5446 40.5761 70.0873 42.0861 68.6144 44.1915H84.2514C82.6671 41.9399 79.7902 40.5761 78.1031 30.7445C81.4826 35.8511 91.6424 37.6214 93.8558 29.3395C96.0331 21.1926 86.2184 16.5531 79.6918 20.2411C85.9502 15.9834 88.1977 2 76.3444 2C64.3741 2 66.3713 16.2568 72.703 20.1925Z" fill="black" stroke="black" stroke-width="2.62916"/>
<path fill-rule="evenodd" clip-rule="evenodd" d="M14.1585 2C9.93938 9.3101 5.18971 16.342 0.364258 23.0958C5.41709 29.8495 10.2425 36.8814 14.1585 44.1915C18.226 36.7423 22.6725 29.6408 27.9527 23.0958C22.8241 16.342 18.1502 9.17101 14.1585 2Z" fill="#C8130D"/>
</svg>
